# xmcd CD database file
#
# Track frame offsets:
#	150
#	17427
#	37572
#	56275
#	71895
#	87327
#	102972
#	116722
#	131860
#	149855
#	175825
#	192940
#	211545
#	227222
#	243042
#
# Disc length: 3396 seconds
#
# Revision: 0
# Processed by: cddbd v1.5.2PL0 Copyright (c) Steve Scherf et al.
# Submitted via: CDex 1.70beta2
#
DISCID=ca0d420f
DTITLE=Doc Swicegood - Country Doctor
DYEAR=1998
DGENRE=Country
TTITLE0=I Don't Wanna Know
TTITLE1=Have I Told You Lately  (Duet with Dailyn Valdez)
TTITLE2=Have You Seen My Heart
TTITLE3=You'll Never Understand Your Wife
TTITLE4=Meet Loneliness
TTITLE5=Meet Loneliness  (Jenny Latiolais)
TTITLE6=Miss Understanding
TTITLE7=The Language of Love
TTITLE8=Look for the Moon
TTITLE9=I Cross My Heart
TTITLE10=Cajun Queen
TTITLE11=They Love the Same Man  (Chris McCauley)
TTITLE12=Cut by the Blades of Love
TTITLE13=Feel Again  (Duet with Con Humley)
TTITLE14=P.S. I'm Gone
EXTD=YEAR: 1998
EXTT0=
EXTT1=
EXTT2=
EXTT3=
EXTT4=
EXTT5=
EXTT6=
EXTT7=
EXTT8=
EXTT9=
EXTT10=
EXTT11=
EXTT12=
EXTT13=
EXTT14=
PLAYORDER=
